<?xml version="1.0" standalone="no"?>
<!DOCTYPE svg PUBLIC "-//W3C//DTD SVG 20010904//EN"
 "http://www.w3.org/TR/2001/REC-SVG-20010904/DTD/svg10.dtd">
<svg version="1.0" xmlns="http://www.w3.org/2000/svg"
 width="267.000000pt" height="381.000000pt" viewBox="0 0 267.000000 381.000000"
 preserveAspectRatio="xMidYMid meet">

<g transform="translate(0.000000,381.000000) scale(0.100000,-0.100000)"
fill="#ffffff" stroke="none">
<path d="M701 3624 c-24 -30 -27 -56 -42 -377 -13 -267 -8 -510 16 -847 8
-113 20 -304 25 -425 15 -346 49 -463 165 -581 70 -71 155 -118 242 -134 132
-23 288 39 418 167 200 196 303 402 337 670 21 161 -22 354 -106 477 -51 74
-168 175 -251 215 -146 72 -393 110 -536 82 -33 -7 -64 -10 -67 -6 -4 3 -10
80 -14 171 -8 181 -19 279 -49 424 -26 127 -37 157 -62 175 -31 22 -53 19 -76
-11z m593 -1090 c111 -29 243 -112 281 -178 59 -103 73 -247 36 -388 -31 -120
-91 -223 -196 -337 -68 -73 -133 -117 -201 -137 -47 -13 -56 -13 -91 1 -82 34
-133 113 -152 236 -6 36 -15 159 -21 275 -6 115 -15 261 -20 324 -5 63 -10
133 -10 156 l0 40 88 17 c98 18 193 15 286 -9z"/>
<path d="M1193 2279 c-39 -11 -79 -58 -94 -110 -11 -34 -10 -46 7 -87 65 -156
298 -101 281 67 -10 95 -103 158 -194 130z"/>
<path d="M2014 2805 c-34 -34 -30 -58 37 -195 l51 -105 -43 -86 c-45 -93 -47
-129 -8 -150 30 -15 60 -5 114 40 l47 39 97 -99 c81 -84 101 -99 127 -99 63 0
82 65 43 143 -12 23 -47 78 -78 121 -31 43 -55 82 -54 86 1 4 25 44 52 90 59
97 70 139 47 175 -13 19 -25 25 -52 25 -31 0 -46 -10 -108 -69 l-71 -70 -49
69 c-78 111 -109 128 -152 85z"/>
<path d="M2174 2010 c-29 -11 -54 -49 -54 -80 0 -60 -71 -364 -103 -444 -86
-210 -187 -354 -334 -476 -167 -138 -293 -187 -453 -176 -114 7 -210 29 -286
65 -125 59 -337 216 -496 369 -73 70 -91 83 -115 80 -107 -12 70 -309 310
-519 98 -85 194 -148 274 -179 73 -28 202 -43 319 -38 l104 5 0 -33 c0 -195
139 -357 342 -400 132 -28 243 -1 360 86 213 161 275 391 163 610 -40 77 -145
159 -207 160 -27 0 -22 13 35 93 101 141 180 317 211 472 22 112 46 282 46
324 -1 67 -56 106 -116 81z m-269 -1172 c95 -48 137 -84 154 -131 29 -77 -5
-175 -87 -248 -73 -66 -114 -84 -192 -84 -114 1 -202 67 -264 199 -42 91 -43
87 34 128 58 31 70 34 70 20 0 -44 123 -182 162 -182 72 1 70 54 -6 147 -31
39 -65 77 -76 84 -19 13 -17 17 43 66 34 29 64 51 67 50 3 -1 46 -23 95 -49z"/>
</g>
</svg>
